<mxfile host="app.diagrams.net" modified="2021-09-03T11:30:36.610Z" agent="5.0 (Windows NT 10.0; Win64; x64) AppleWebKit/537.36 (KHTML, like Gecko) Chrome/92.0.4515.159 Safari/537.36" etag="rogPk9I9ulLa4lzCIz1S" version="15.0.3" type="github">
  <diagram name="Page-1" id="c4acf3e9-155e-7222-9cf6-157b1a14988f">
    <mxGraphModel dx="1662" dy="705" grid="1" gridSize="10" guides="1" tooltips="1" connect="1" arrows="1" fold="1" page="1" pageScale="1" pageWidth="850" pageHeight="1100" background="none" math="0" shadow="0">
      <root>
        <mxCell id="0" />
        <mxCell id="1" parent="0" />
        <mxCell id="x_nODyUkCj5Ldj-to_ft-1" value="TURBSR_2_ABLADE" style="swimlane;fontStyle=1;align=center;verticalAlign=top;childLayout=stackLayout;horizontal=1;startSize=26;horizontalStack=0;resizeParent=1;resizeParentMax=0;resizeLast=0;collapsible=1;marginBottom=0;" vertex="1" parent="1">
          <mxGeometry x="700" y="190" width="420" height="300" as="geometry" />
        </mxCell>
        <mxCell id="x_nODyUkCj5Ldj-to_ft-5" value="+ workdir_path: str&#xa;+ turbsr_path: str&#xa;+ input_dat_name: str&#xa;+ output_rez_name: str&#xa;+ output_param_name: str&#xa;+ twist_law: int" style="text;strokeColor=none;fillColor=none;align=left;verticalAlign=top;spacingLeft=4;spacingRight=4;overflow=hidden;rotatable=0;points=[[0,0.5],[1,0.5]];portConstraint=eastwest;" vertex="1" parent="x_nODyUkCj5Ldj-to_ft-1">
          <mxGeometry y="26" width="420" height="94" as="geometry" />
        </mxCell>
        <mxCell id="x_nODyUkCj5Ldj-to_ft-3" value="" style="line;strokeWidth=1;fillColor=none;align=left;verticalAlign=middle;spacingTop=-1;spacingLeft=3;spacingRight=3;rotatable=0;labelPosition=right;points=[];portConstraint=eastwest;" vertex="1" parent="x_nODyUkCj5Ldj-to_ft-1">
          <mxGeometry y="120" width="420" height="8" as="geometry" />
        </mxCell>
        <mxCell id="x_nODyUkCj5Ldj-to_ft-2" value="+ def run_turbsr (input_dat_name, workdir_path, turbsr_path)&#xa;       return (0,workdir_path/output_rez_name)" style="text;strokeColor=none;fillColor=none;align=left;verticalAlign=top;spacingLeft=4;spacingRight=4;overflow=hidden;rotatable=0;points=[[0,0.5],[1,0.5]];portConstraint=eastwest;" vertex="1" parent="x_nODyUkCj5Ldj-to_ft-1">
          <mxGeometry y="128" width="420" height="44" as="geometry" />
        </mxCell>
        <mxCell id="x_nODyUkCj5Ldj-to_ft-7" value="+ def turbsr_parser (output_rez_name, workdir_path)&#xa;       return ({blade_data})" style="text;strokeColor=none;fillColor=none;align=left;verticalAlign=top;spacingLeft=4;spacingRight=4;overflow=hidden;rotatable=0;points=[[0,0.5],[1,0.5]];portConstraint=eastwest;" vertex="1" parent="x_nODyUkCj5Ldj-to_ft-1">
          <mxGeometry y="172" width="420" height="44" as="geometry" />
        </mxCell>
        <mxCell id="x_nODyUkCj5Ldj-to_ft-4" value="+ def twist_blade ({blade_data}, twist_law)&#xa;       return ({blade_data_twist})" style="text;strokeColor=none;fillColor=none;align=left;verticalAlign=top;spacingLeft=4;spacingRight=4;overflow=hidden;rotatable=0;points=[[0,0.5],[1,0.5]];portConstraint=eastwest;" vertex="1" parent="x_nODyUkCj5Ldj-to_ft-1">
          <mxGeometry y="216" width="420" height="42" as="geometry" />
        </mxCell>
        <mxCell id="x_nODyUkCj5Ldj-to_ft-8" value="+ def ablade_maker ({blade_data_twist}, workdir_path, output_param_name)&#xa;       return (workdir_path/output_param_name)" style="text;strokeColor=none;fillColor=none;align=left;verticalAlign=top;spacingLeft=4;spacingRight=4;overflow=hidden;rotatable=0;points=[[0,0.5],[1,0.5]];portConstraint=eastwest;" vertex="1" parent="x_nODyUkCj5Ldj-to_ft-1">
          <mxGeometry y="258" width="420" height="42" as="geometry" />
        </mxCell>
        <mxCell id="x_nODyUkCj5Ldj-to_ft-9" value="TURBSR_2_ABLADE GUI" style="swimlane;" vertex="1" parent="1">
          <mxGeometry x="40" y="80" width="560" height="470" as="geometry">
            <mxRectangle x="40" y="80" width="180" height="23" as="alternateBounds" />
          </mxGeometry>
        </mxCell>
        <mxCell id="x_nODyUkCj5Ldj-to_ft-10" value="workdir_path" style="html=1;" vertex="1" parent="x_nODyUkCj5Ldj-to_ft-9">
          <mxGeometry x="40" y="40" width="120" height="40" as="geometry" />
        </mxCell>
        <mxCell id="x_nODyUkCj5Ldj-to_ft-11" value="turbsr_path" style="html=1;" vertex="1" parent="x_nODyUkCj5Ldj-to_ft-9">
          <mxGeometry x="40" y="120" width="120" height="40" as="geometry" />
        </mxCell>
        <mxCell id="x_nODyUkCj5Ldj-to_ft-12" value="&lt;span style=&quot;text-align: left&quot;&gt;input_dat_name&lt;/span&gt;" style="html=1;" vertex="1" parent="x_nODyUkCj5Ldj-to_ft-9">
          <mxGeometry x="400" y="40" width="120" height="40" as="geometry" />
        </mxCell>
        <mxCell id="x_nODyUkCj5Ldj-to_ft-13" value="&lt;span style=&quot;text-align: left&quot;&gt;output_rez_name&lt;/span&gt;" style="html=1;" vertex="1" parent="x_nODyUkCj5Ldj-to_ft-9">
          <mxGeometry x="400" y="200" width="120" height="40" as="geometry" />
        </mxCell>
        <mxCell id="x_nODyUkCj5Ldj-to_ft-14" value="&lt;span style=&quot;text-align: left&quot;&gt;output_param_name&lt;/span&gt;" style="html=1;" vertex="1" parent="x_nODyUkCj5Ldj-to_ft-9">
          <mxGeometry x="400" y="120" width="120" height="40" as="geometry" />
        </mxCell>
        <mxCell id="x_nODyUkCj5Ldj-to_ft-16" value="twist_law list" style="swimlane;" vertex="1" parent="x_nODyUkCj5Ldj-to_ft-9">
          <mxGeometry x="40" y="200" width="120" height="120" as="geometry">
            <mxRectangle x="70" y="240" width="110" height="23" as="alternateBounds" />
          </mxGeometry>
        </mxCell>
        <mxCell id="x_nODyUkCj5Ldj-to_ft-17" value="+ law 1" style="text;html=1;align=center;verticalAlign=middle;resizable=0;points=[];autosize=1;strokeColor=none;" vertex="1" parent="x_nODyUkCj5Ldj-to_ft-16">
          <mxGeometry x="20" y="30" width="50" height="20" as="geometry" />
        </mxCell>
        <mxCell id="x_nODyUkCj5Ldj-to_ft-18" value="+ law 2" style="text;html=1;align=center;verticalAlign=middle;resizable=0;points=[];autosize=1;strokeColor=none;" vertex="1" parent="x_nODyUkCj5Ldj-to_ft-16">
          <mxGeometry x="20" y="58" width="50" height="20" as="geometry" />
        </mxCell>
        <mxCell id="x_nODyUkCj5Ldj-to_ft-19" value="+ law 3" style="text;html=1;align=center;verticalAlign=middle;resizable=0;points=[];autosize=1;strokeColor=none;" vertex="1" parent="x_nODyUkCj5Ldj-to_ft-16">
          <mxGeometry x="20" y="88" width="50" height="20" as="geometry" />
        </mxCell>
      </root>
    </mxGraphModel>
  </diagram>
</mxfile>
